<?xml version="1.0" encoding="utf-8"?>
<!-- Generator: Adobe Illustrator 21.0.0, SVG Export Plug-In . SVG Version: 6.00 Build 0)  -->
<svg version="1.1" id="Layer_1" xmlns="http://www.w3.org/2000/svg" xmlns:xlink="http://www.w3.org/1999/xlink" x="0px" y="0px"
	 width="350px" height="302px" viewBox="0 0 350 302" style="enable-background:new 0 0 350 302;" xml:space="preserve">
<style type="text/css">
	.st0{fill:#CCD5E2;}
	.st1{fill:#FFFFFF;}
	.st2{fill:#F9D76B;}
	.st3{fill:#D66DF7;}
	.st4{fill:#FC86B4;}
	.st5{fill:#FFAB9A;}
	.st6{fill:#8AF9DC;}
	.st7{fill:#464646;}
	.st8{fill:#482209;}
	.st9{fill:none;stroke:#E38E80;stroke-width:0.7288;stroke-linecap:round;stroke-miterlimit:10;}
	.st10{fill:none;stroke:#C77139;stroke-width:0.7288;stroke-miterlimit:10;}
	.st11{fill:none;stroke:#C77139;stroke-width:0.7288;stroke-linecap:round;stroke-miterlimit:10;}
	.st12{fill:none;stroke:#404B6F;stroke-width:0.7288;stroke-linecap:round;stroke-miterlimit:10;}
	.st13{fill:#D55AF2;}
	.st14{fill:#FFFFEE;}
</style>
<g>
	<g>
		<path class="st0" d="M200.2,276.5h-81.9c-12.7,0-23-10.3-23-23v-205c0-12.7,10.3-23,23-23h81.9c12.7,0,23,10.3,23,23v204.9
			C223.2,266.2,213,276.5,200.2,276.5z"/>
		<path class="st1" d="M201.2,267.6h-83.9c-8.9,0-16.1-7.2-16.1-16.1V49.2c0-8.9,7.2-16.1,16.1-16.1h83.9c8.9,0,16.1,7.2,16.1,16.1
			v202.3C217.3,260.4,210.2,267.6,201.2,267.6z"/>
	</g>
	<path class="st0" d="M194,33h-7.5c-2.3,0-4.2,1.9-4.2,4.2v2.9c0,2.3-1.9,4.2-4.2,4.2h-33.6c-2.3,0-4.2-1.9-4.2-4.2v-3
		c0-2.3-1.9-4.2-4.2-4.2h-21.5v-2.2h79.5V33H194z"/>
</g>
<path class="st2" d="M178.1,125.7h-33.4c-7.2,0-13-5.8-13-13V79.3c0-7.2,5.8-13,13-13h33.4c7.2,0,13,5.8,13,13v33.4
	C191.1,119.9,185.3,125.7,178.1,125.7z"/>
<path class="st3" d="M141.4,174.3H48.1c-2.2,0-4.1-1.8-4.1-4.1s1.8-4.1,4.1-4.1h93.3c2.2,0,4.1,1.8,4.1,4.1S143.6,174.3,141.4,174.3
	z"/>
<path class="st3" d="M157.2,192.4h-46.5c-2.2,0-4.1-1.8-4.1-4.1c0-2.2,1.8-4.1,4.1-4.1h46.5c2.2,0,4.1,1.8,4.1,4.1
	C161.3,190.5,159.5,192.4,157.2,192.4z"/>
<path class="st4" d="M157.2,156.6H48.1c-2.2,0-4.1-1.8-4.1-4.1c0-2.2,1.8-4.1,4.1-4.1h109.2c2.3,0,4.1,1.8,4.1,4.1
	C161.3,154.7,159.5,156.6,157.2,156.6z"/>
<path class="st2" d="M157.2,210.1h-46.5c-2.2,0-4.1-1.8-4.1-4.1c0-2.2,1.8-4.1,4.1-4.1h46.5c2.2,0,4.1,1.8,4.1,4.1
	C161.3,208.2,159.5,210.1,157.2,210.1z"/>
<g>
	<polygon class="st5" points="275.1,106.8 280.1,108.6 282.3,104.3 	"/>
	<path class="st5" d="M280.6,72.6c1.2,9.9,6.4,14.6,6.4,14.6l-4,9.1l2,0.7c0,0,2-3.7,4.5-4.5c2.5-0.9,5.7,0.8,3.2,5.5
		s-7.7,3.9-7.7,3.9c-4.2,5.2-17.8,9-23.5-3.4c-5.7-12.5,6.1-29.3,6.1-29.3C270,72.9,280.6,72.6,280.6,72.6z"/>
	<path class="st6" d="M241.2,154.5l8.6-20.7c-7.4,2-31.3-12.8-31.3-12.8c0.7-6.2,6.4-9.9,6.4-9.9s20.2,11.1,22.2,10.6
		s18.6-17.7,29.8-14.9c11.2,2.8,3.2,26.7,0,32.9s3.2,16.6,3.2,16.6C280.9,167.6,241.2,154.5,241.2,154.5z"/>
	<path class="st6" d="M296.7,161.7c0,0-6.9-21.2-8.6-25.4s-7.3-7.4-7.3-7.4s-8.2-26.2,0.7-18.1c8.8,8.1,16.3,17.1,18.5,24.5
		c2.2,7.4,7.6,21,7.6,21C303.1,164.4,296.7,161.7,296.7,161.7z"/>
	<path class="st5" d="M219.4,117.6c0,0-3-2.1-7.8-4.4c-9.3-4.3-14.5-15.2-13-16.3c1.6-1.1,3.4,1.4,6.6,3.9c3.2,2.5,6.2,3.4,8.6,4.3
		s3.8,4.1,3.8,4.1l5.8,3.1C221.9,113.5,219.4,117.6,219.4,117.6z"/>
	<path class="st5" d="M298.4,162.1c0,0-1.2,2.6-1.3,3.7s-1.8,3.3-2.1,4.3c-0.3,1.1,0.5,1.7,1.6,1.1c1.1-0.6,2.6-2.9,2.6-2.9
		s1.4,8,2.4,10.8s2.7,2.9,3.1,2s-2.4-9.2-1.4-9.8s0.7,0.7,0.7,0.7c0.4,3.4,3.2,9.5,4.5,8.6c1.3-1-1.5-9.7-1.5-9.7s5.7,5.7,6.9,4.2
		c0.8-1.1-3.5-5.1-4.5-6.6c-1-1.6-0.7-2.9-0.8-5c-0.1-2.1-2.6-4.8-2.6-4.8C303,162.4,298.4,162.1,298.4,162.1z"/>
	<path class="st7" d="M256.5,158.6c0,0,19.4,38.2,23,47.6s15.6,37.7,15.6,37.7c7.8,3.7,14.8-3,14.8-3l-30.4-82.2
		C276.5,162.8,256.5,158.6,256.5,158.6z"/>
	<path class="st7" d="M268.3,161c-1.9,13.2-28.5,32.6-29.8,38.9c-2,11.6,31.3,32.7,31.3,32.7c-1.4,8-13.4,12.5-13.4,12.5
		c-38.2-30.8-38-38.8-33-51.2c5-12.5,17.8-39.4,17.8-39.4C251.3,157.5,268.3,160.9,268.3,161z"/>
	<path class="st5" d="M298.7,245l2,6.4c4.4,1.5,9.1-2.2,9.1-2.2l-2.2-6.6C305.5,244.2,298.7,245,298.7,245z"/>
	<path class="st5" d="M261.4,242.6l6.6,4.6c3.5-1.6,5-6.6,5-6.6l-5-3.8C266.6,239.5,261.4,242.6,261.4,242.6z"/>
	<path class="st7" d="M300.8,251.4c0,0,4.3,25.8,8.2,27.1c3.8,1.3,5.2-2.2,5-7.1s1.3-11.4,1-14.8s-5.2-7.4-5.2-7.4
		C304.9,252.9,300.8,251.4,300.8,251.4z"/>
	<path class="st7" d="M267.9,247.2c0,0,6.5,24.5,10.2,23.7c3.7-0.9,4.2-4.2,2.9-10.3c-1.3-6,0.2-12.9-0.8-15.5s-7.2-4.5-7.2-4.5
		C271.1,245.8,267.9,247.2,267.9,247.2z"/>
	<path class="st8" d="M293.8,94.2l0.1-0.1c0,0,8.6-7.6,5.4-18.7c-3.1-11.1-13.8-8.2-18-11.5c-4.2-3.3-8.6-13-17.2-11.6
		c-8.6,1.3-5.8,12.7,3.6,16.9c2.3,3.7,12.9,3.4,12.9,3.4c1.2,9.9,6.4,14.6,6.4,14.6l-3.9,9l2,0.7c0,0,2-3.7,4.5-4.5
		C291.3,91.9,293.2,92.4,293.8,94.2z"/>
	<path class="st9" d="M286.6,97.9c0,0,2-3.9,3.8-3.7c1.8,0.2,1.4,2.4,1.4,2.4"/>
	<path class="st9" d="M210.4,110.3c-2.1-1.2-3.4-3.2-5.4-5c-2-1.7-1.5-3.3-0.4-3.7c1.2-0.5,2.3,0.5,2.3,0.5"/>
	<path class="st9" d="M303.4,164.3c-0.7,3.6-4.1,4.1-4.1,4.1"/>
	<path class="st10" d="M249.8,133.8"/>
	<path class="st10" d="M265.3,124.7"/>
	<path class="st9" d="M276.9,106.8c3-0.8,5.4-2.5,5.4-2.5"/>
	<path class="st11" d="M280.8,128.9"/>
	<path class="st11" d="M281.5,110.8"/>
	<path class="st12" d="M268.3,160.9c-0.4,5.8-5.3,10.8-5.3,10.8"/>
</g>
<g>
	<path class="st1" d="M162.7,94.1c3.3,0,6-3.3,6-7.3c0-4-0.9-7.3-6-7.3c-5.1,0-6,3.3-6,7.3C156.7,90.8,159.4,94.1,162.7,94.1z"/>
	<path class="st1" d="M151.4,105.2C151.4,105,151.4,105.2,151.4,105.2L151.4,105.2z"/>
	<path class="st1" d="M174.1,105.4C174.1,105.4,174.1,105,174.1,105.4L174.1,105.4z"/>
	<path class="st1" d="M174,104.9c-0.1-7-1-9-8-10.3c0,0-1,1.3-3.3,1.3c-2.3,0-3.3-1.3-3.3-1.3c-6.9,1.3-7.9,3.2-8,10.1
		c0,0.6,0,0.6,0,0.5c0,0.1,0,0.3,0,0.7c0,0,1.7,3.4,11.3,3.4c9.7,0,11.3-3.4,11.3-3.4c0-0.3,0-0.4,0-0.5
		C174,105.5,174,105.4,174,104.9z"/>
</g>
<g>
	<path class="st13" d="M176.7,219.1l18.8,0c1.7,0,3.2,1.4,3.2,3.2l0,12.1c0,1.7-1.4,3.2-3.1,3.2l-3,0l-3.4,4.9
		c-0.1,0.1-0.3,0.1-0.3-0.1l-0.1-4.7h-12c-1.7,0-3.2-1.4-3.2-3.2l0-12.1C173.5,220.5,174.9,219.1,176.7,219.1z"/>
	<g>
		<rect x="177.1" y="222.7" class="st14" width="15" height="0.6"/>
		<rect x="177.1" y="227.5" class="st14" width="17.9" height="0.6"/>
		<rect x="177.1" y="232.3" class="st14" width="17.9" height="0.6"/>
	</g>
</g>
</svg>
