<?xml version="1.0" encoding="iso-8859-1"?>
<!-- Generator: Adobe Illustrator 19.0.0, SVG Export Plug-In . SVG Version: 6.00 Build 0)  -->
<svg version="1.1" id="Capa_1" xmlns="http://www.w3.org/2000/svg" xmlns:xlink="http://www.w3.org/1999/xlink" x="0px" y="0px"
	 viewBox="0 0 463.917 463.917" style="enable-background:new 0 0 463.917 463.917;" xml:space="preserve">
<path style="fill:#00F2A9;" d="M264.517,97.158c-21.6,21.6-32.8,50.4-32.8,79.2c0-28.8-11.2-57.6-32.8-79.2c-44-44-114.4-44-158.4,0
	s-44,115.2,0,158.4l0.8,0.8h-1.6l191.2,191.2l192-192.8c44-44,44-115.2,0-158.4S308.517,53.158,264.517,97.158z"/>
<g>
	<path style="fill:#322153;" d="M428.517,51.558c-22.4-23.2-52.8-35.2-84.8-35.2s-62.4,12.8-84.8,35.2c-12,12-20.8,26.4-27.2,41.6
		c-5.6-15.2-15.2-29.6-27.2-41.6c-22.4-23.2-52.8-35.2-84.8-35.2s-62.4,12.8-84.8,35.2c-45.6,45.6-46.4,120-3.2,167.2
		c0,1.6,0.8,2.4,2.4,4l191.2,191.2c1.6,1.6,3.2,2.4,5.6,2.4s4-0.8,5.6-2.4l192-192C475.717,173.958,475.717,97.958,428.517,51.558z
		 M417.317,209.958l-186.4,186.4l-181.6-181.6c-0.8-1.6-1.6-3.2-3.2-4.8l0,0c-40.8-40.8-40.8-106.4,0-147.2
		c20-20,45.6-30.4,73.6-30.4s53.6,11.2,73.6,30.4c20,20,30.4,45.6,30.4,73.6c0,4.8,3.2,8,8,8c4.8,0,8-3.2,8-8
		c0-28,11.2-54.4,30.4-73.6c20-20,45.6-30.4,73.6-30.4s53.6,11.2,73.6,30.4C458.117,102.758,458.117,169.158,417.317,209.958z"/>
	<path style="fill:#322153;" d="M119.717,48.358c-48.8,0-88,39.2-88,88c0,4.8,3.2,8,8,8s8-3.2,8-8c0-40,32-72,72-72c4.8,0,8-3.2,8-8
		S124.517,48.358,119.717,48.358z"/>
	<path style="fill:#322153;" d="M290.117,242.758l-64,64c-3.2,3.2-3.2,8,0,11.2c1.6,1.6,4,2.4,5.6,2.4s4-0.8,5.6-2.4l64-64
		c3.2-3.2,3.2-8,0-11.2C298.117,239.558,293.317,239.558,290.117,242.758z"/>
	<path style="fill:#322153;" d="M231.717,288.358c2.4,0,4-0.8,5.6-2.4l32-32c3.2-3.2,3.2-8,0-11.2s-8-3.2-11.2,0l-32,32
		c-3.2,3.2-3.2,8,0,11.2C227.717,287.558,229.317,288.358,231.717,288.358z"/>
	<path style="fill:#322153;" d="M290.117,274.758l-32,32c-3.2,3.2-3.2,8,0,11.2c1.6,1.6,4,2.4,5.6,2.4s4-0.8,5.6-2.4l32-32
		c3.2-3.2,3.2-8,0-11.2C298.117,271.558,293.317,271.558,290.117,274.758z"/>
	<path style="fill:#322153;" d="M343.717,49.158c-4.8,0-8,3.2-8,8s3.2,8,8,8c39.2,0,71.2,32,71.2,71.2c0,4.8,3.2,8,8,8s8-3.2,8-8
		C430.917,88.358,391.717,49.158,343.717,49.158z"/>
</g>
<g>
</g>
<g>
</g>
<g>
</g>
<g>
</g>
<g>
</g>
<g>
</g>
<g>
</g>
<g>
</g>
<g>
</g>
<g>
</g>
<g>
</g>
<g>
</g>
<g>
</g>
<g>
</g>
<g>
</g>
</svg>
